<mxfile host="drawio-plugin" modified="2023-10-09T14:17:39.788Z" agent="5.0 (Macintosh; Intel Mac OS X 10_15_7) AppleWebKit/537.36 (KHTML, like Gecko) Chrome/111.0.0.0 Safari/537.36" etag="D4KCEfVPCXPrWatlCpxI" version="20.5.3" type="embed"><diagram id="prJrTNIK64EmKGTRmjFL" name="Page-1"><mxGraphModel dx="1826" dy="829" grid="1" gridSize="10" guides="1" tooltips="1" connect="1" arrows="1" fold="1" page="1" pageScale="1" pageWidth="850" pageHeight="1100" math="0" shadow="0"><root><mxCell id="0"/><mxCell id="1" parent="0"/><mxCell id="26" value="" style="rounded=1;whiteSpace=wrap;html=1;fontSize=20;fillColor=#f8cecc;strokeColor=#b85450;" parent="1" vertex="1"><mxGeometry x="-40" y="50" width="690" height="290" as="geometry"/></mxCell><mxCell id="7" value="" style="edgeStyle=orthogonalEdgeStyle;rounded=0;orthogonalLoop=1;jettySize=auto;html=1;" parent="1" source="2" target="3" edge="1"><mxGeometry relative="1" as="geometry"/></mxCell><mxCell id="2" value="case 1" style="ellipse;whiteSpace=wrap;html=1;" parent="1" vertex="1"><mxGeometry x="90" y="190" width="120" height="80" as="geometry"/></mxCell><mxCell id="8" value="" style="edgeStyle=orthogonalEdgeStyle;rounded=0;orthogonalLoop=1;jettySize=auto;html=1;" parent="1" source="3" target="4" edge="1"><mxGeometry relative="1" as="geometry"/></mxCell><mxCell id="3" value="case 2" style="ellipse;whiteSpace=wrap;html=1;" parent="1" vertex="1"><mxGeometry x="220" y="90" width="120" height="80" as="geometry"/></mxCell><mxCell id="4" value="case 3" style="ellipse;whiteSpace=wrap;html=1;" parent="1" vertex="1"><mxGeometry x="400" y="220" width="120" height="80" as="geometry"/></mxCell><mxCell id="6" value="" style="shape=flexArrow;endArrow=classic;html=1;rounded=0;" parent="1" edge="1"><mxGeometry width="50" height="50" relative="1" as="geometry"><mxPoint x="-10" y="229.29" as="sourcePoint"/><mxPoint x="70" y="229.29" as="targetPoint"/></mxGeometry></mxCell><mxCell id="9" value="" style="shape=flexArrow;endArrow=classic;html=1;rounded=0;" parent="1" edge="1"><mxGeometry width="50" height="50" relative="1" as="geometry"><mxPoint x="530" y="259.29" as="sourcePoint"/><mxPoint x="610" y="259.29" as="targetPoint"/></mxGeometry></mxCell><mxCell id="27" value="" style="rounded=1;whiteSpace=wrap;html=1;fontSize=20;fillColor=#d5e8d4;strokeColor=#82b366;" parent="1" vertex="1"><mxGeometry x="-50" y="420" width="710" height="150" as="geometry"/></mxCell><mxCell id="24" value="" style="group" parent="1" vertex="1" connectable="0"><mxGeometry x="-10" y="452" width="620" height="80" as="geometry"/></mxCell><mxCell id="18" value="case 1" style="ellipse;whiteSpace=wrap;html=1;" parent="24" vertex="1"><mxGeometry x="100" width="120" height="80" as="geometry"/></mxCell><mxCell id="20" value="case 2" style="ellipse;whiteSpace=wrap;html=1;" parent="24" vertex="1"><mxGeometry x="250" width="120" height="80" as="geometry"/></mxCell><mxCell id="17" value="" style="edgeStyle=orthogonalEdgeStyle;rounded=0;orthogonalLoop=1;jettySize=auto;html=1;" parent="24" source="18" target="20" edge="1"><mxGeometry relative="1" as="geometry"/></mxCell><mxCell id="21" value="case 3" style="ellipse;whiteSpace=wrap;html=1;" parent="24" vertex="1"><mxGeometry x="400" width="120" height="80" as="geometry"/></mxCell><mxCell id="19" value="" style="edgeStyle=orthogonalEdgeStyle;rounded=0;orthogonalLoop=1;jettySize=auto;html=1;" parent="24" source="20" target="21" edge="1"><mxGeometry relative="1" as="geometry"/></mxCell><mxCell id="22" value="" style="shape=flexArrow;endArrow=classic;html=1;rounded=0;" parent="24" edge="1"><mxGeometry width="50" height="50" relative="1" as="geometry"><mxPoint y="40" as="sourcePoint"/><mxPoint x="80" y="40" as="targetPoint"/></mxGeometry></mxCell><mxCell id="23" value="" style="shape=flexArrow;endArrow=classic;html=1;rounded=0;" parent="24" edge="1"><mxGeometry width="50" height="50" relative="1" as="geometry"><mxPoint x="540" y="39.29000000000008" as="sourcePoint"/><mxPoint x="620" y="39.29000000000008" as="targetPoint"/></mxGeometry></mxCell><mxCell id="25" value="Unified each conditions" style="text;html=1;strokeColor=none;fillColor=none;align=center;verticalAlign=middle;whiteSpace=wrap;rounded=0;fontSize=20;" parent="1" vertex="1"><mxGeometry x="146" y="364" width="310" height="30" as="geometry"/></mxCell></root></mxGraphModel></diagram></mxfile>